<svg width="32" height="32" viewBox="0 0 32 32" fill="none" xmlns="http://www.w3.org/2000/svg">
<g clip-path="url(#clip0_30_75)">
<path d="M30 -0.00305176H2C0.9005 -0.00305176 0 0.897448 0 1.99695V30.0029C0 31.1024 0.9005 32.0029 2 32.0029H30C31.0995 32.0029 32 31.1024 32 30.0029V1.99695C32 0.897448 31.0995 -0.00305176 30 -0.00305176ZM30 30.003H2V1.99698H30V30.003ZM7 11.0095H9V13.0095C9 13.5615 9.448 14.0095 10 14.0095C10.552 14.0095 11 13.5615 11 13.0095V11.0095H13C13.552 11.0095 14 10.5615 14 10.0095C14 9.45748 13.552 9.00948 13 9.00948H11V7.00948C11 6.45748 10.552 6.00948 10 6.00948C9.448 6.00948 9 6.45748 9 7.00948V9.00948H7C6.448 9.00948 6 9.45748 6 10.0095C6 10.5615 6.448 11.0095 7 11.0095ZM13.5355 18.4734C13.145 18.0829 12.512 18.0829 12.1215 18.4734L10 20.5944L7.87853 18.4734C7.48803 18.0829 6.85503 18.0829 6.46403 18.4734C6.07353 18.8639 6.07353 19.4974 6.46403 19.8879L8.58503 22.0089L6.46403 24.1299C6.07353 24.5204 6.07353 25.1539 6.46403 25.5444C6.85453 25.9349 7.48753 25.935 7.87853 25.5444L10 23.4239L12.1215 25.5449C12.512 25.9354 13.145 25.9354 13.5355 25.5449C13.926 25.1544 13.926 24.5209 13.5355 24.1304L11.4145 22.0094L13.5355 19.8884C13.926 19.4974 13.926 18.8644 13.5355 18.4734ZM19 11.0094H25C25.552 11.0094 26 10.5614 26 10.0094C26 9.45745 25.552 9.00945 25 9.00945H19C18.448 9.00945 18 9.45745 18 10.0094C18 10.5614 18.448 11.0094 19 11.0094ZM19 21.0094H25C25.552 21.0094 26 20.5614 26 20.0094C26 19.4574 25.552 19.0094 25 19.0094H19C18.448 19.0094 18 19.4574 18 20.0094C18 20.5614 18.448 21.0094 19 21.0094ZM19 25.0094H25C25.552 25.0094 26 24.5614 26 24.0094C26 23.4574 25.552 23.0094 25 23.0094H19C18.448 23.0094 18 23.4574 18 24.0094C18 24.5614 18.448 25.0094 19 25.0094Z" fill="#FBA208"/>
</g>
<defs>
<clipPath id="clip0_30_75">
<rect width="32" height="32" fill="white"/>
</clipPath>
</defs>
</svg>
