<svg width="24" height="24" viewBox="0 0 24 24" fill="none" xmlns="http://www.w3.org/2000/svg">
<path d="M11.0299 8.96997C10.8877 8.83749 10.6997 8.76537 10.5054 8.76879C10.3111 8.77222 10.1257 8.85093 9.98829 8.98835C9.85088 9.12576 9.77216 9.31115 9.76873 9.50545C9.76531 9.69975 9.83743 9.88779 9.96991 10.03L11.9399 12L9.96991 13.97C9.89622 14.0386 9.83712 14.1214 9.79613 14.2134C9.75514 14.3054 9.73309 14.4047 9.73132 14.5054C9.72954 14.6061 9.74807 14.7062 9.78579 14.7996C9.82351 14.893 9.87965 14.9778 9.95087 15.049C10.0221 15.1202 10.1069 15.1764 10.2003 15.2141C10.2937 15.2518 10.3937 15.2703 10.4944 15.2686C10.5951 15.2668 10.6944 15.2447 10.7864 15.2038C10.8784 15.1628 10.9612 15.1037 11.0299 15.03L12.9999 13.06L14.9699 15.03C15.1121 15.1624 15.3001 15.2346 15.4944 15.2311C15.6887 15.2277 15.8741 15.149 16.0115 15.0116C16.1489 14.8742 16.2277 14.6888 16.2311 14.4945C16.2345 14.3002 16.1624 14.1121 16.0299 13.97L14.0599 12L16.0299 10.03C16.1624 9.88779 16.2345 9.69975 16.2311 9.50545C16.2277 9.31115 16.1489 9.12576 16.0115 8.98835C15.8741 8.85093 15.6887 8.77222 15.4944 8.76879C15.3001 8.76537 15.1121 8.83749 14.9699 8.96997L12.9999 10.94L11.0299 8.96997Z" fill="#666666"/>
<path fill-rule="evenodd" clip-rule="evenodd" d="M21.32 4.634C20.554 3.889 19.585 3.56 18.387 3.403C17.219 3.25 15.725 3.25 13.834 3.25H11.106C10.023 3.25 9.158 3.25 8.45 3.316C7.72 3.384 7.1 3.526 6.515 3.841C5.929 4.157 5.475 4.595 5.025 5.165C4.592 5.716 4.133 6.431 3.56 7.323L2.837 8.45C2.359 9.194 1.968 9.802 1.702 10.332C1.424 10.885 1.25 11.412 1.25 12.001C1.25 12.59 1.424 13.117 1.702 13.671C1.968 14.201 2.359 14.808 2.837 15.552L3.56 16.678C4.133 17.57 4.592 18.285 5.026 18.836C5.475 19.406 5.929 19.844 6.516 20.16C7.1 20.475 7.719 20.617 8.45 20.685C9.158 20.751 10.023 20.751 11.106 20.751H13.834C15.725 20.751 17.219 20.751 18.387 20.598C19.585 20.441 20.554 20.112 21.319 19.367C22.087 18.62 22.429 17.669 22.592 16.493C22.75 15.353 22.75 13.895 22.75 12.059V11.943C22.75 10.107 22.75 8.65 22.592 7.509C22.43 6.333 22.087 5.383 21.319 4.635M13.778 4.751C15.736 4.751 17.132 4.753 18.191 4.891C19.231 5.027 19.833 5.283 20.272 5.711C20.708 6.134 20.967 6.712 21.106 7.715C21.247 8.741 21.249 10.094 21.249 12.001C21.249 13.908 21.247 15.261 21.106 16.287C20.967 17.29 20.708 17.867 20.272 18.292C19.833 18.719 19.231 18.975 18.191 19.111C17.131 19.25 15.736 19.251 13.778 19.251H11.141C10.014 19.251 9.219 19.251 8.588 19.191C7.973 19.134 7.571 19.026 7.226 18.839C6.882 18.654 6.576 18.382 6.203 17.907C5.819 17.42 5.399 16.767 4.801 15.836L4.12 14.776C3.615 13.989 3.268 13.448 3.042 12.997C2.823 12.562 2.749 12.272 2.749 12.001C2.749 11.73 2.823 11.44 3.042 11.005C3.268 10.555 3.615 10.013 4.12 9.226L4.8 8.166C5.399 7.236 5.82 6.582 6.203 6.095C6.577 5.62 6.883 5.348 7.226 5.163C7.571 4.976 7.973 4.868 8.588 4.81C9.218 4.752 10.014 4.751 11.141 4.751H13.778Z" fill="#666666"/>
</svg>
